<svg xmlns="http://www.w3.org/2000/svg" width="512" height="512" viewBox="0 0 512 512">
  <defs>
    <linearGradient id="brandGrad" x1="0%" y1="0%" x2="100%" y2="100%">
      <stop offset="0%" style="stop-color:#6366f1;stop-opacity:1" />
      <stop offset="100%" style="stop-color:#0ea5e9;stop-opacity:1" />
    </linearGradient>
  </defs>
  <!-- Background rounded rectangle (corner radius = 120, matches ~23.4% border-radius like CSS 10px on 40px) -->
  <rect x="0" y="0" width="512" height="512" rx="120" ry="120" fill="url(#brandGrad)" />
  
  <!-- FileStack Lucide icon v1.17.0 center-positioned. Scale = 16. Shift = 64 -->
  <g transform="translate(64, 64) scale(16)" stroke="#ffffff" stroke-width="2.0" stroke-linecap="round" stroke-linejoin="round" fill="none">
    <path d="M11 21a1 1 0 0 1-1 1H4a1 1 0 0 1-1-1v-8a1 1 0 0 1 1-1" />
    <path d="M16 16a1 1 0 0 1-1 1H9a1 1 0 0 1-1-1V8a1 1 0 0 1 1-1" />
    <path d="M21 6a2 2 0 0 0-.586-1.414l-2-2A2 2 0 0 0 17 2h-3a1 1 0 0 0-1 1v8a1 1 0 0 0 1 1h6a1 1 0 0 0 1-1z" />
  </g>
</svg>